<svg xmlns="http://www.w3.org/2000/svg" width="18" height="20.571" viewBox="0 0 18 20.571"><defs><style>.a{fill:#fff;}</style></defs><path class="a" d="M17.518,19.286h-.8V.964A.964.964,0,0,0,15.75,0H2.25a.964.964,0,0,0-.964.964V19.286h-.8A.482.482,0,0,0,0,19.768v.8H18v-.8A.482.482,0,0,0,17.518,19.286ZM5.143,3.054a.482.482,0,0,1,.482-.482H7.232a.482.482,0,0,1,.482.482V4.661a.482.482,0,0,1-.482.482H5.625a.482.482,0,0,1-.482-.482Zm0,3.857a.482.482,0,0,1,.482-.482H7.232a.482.482,0,0,1,.482.482V8.518A.482.482,0,0,1,7.232,9H5.625a.482.482,0,0,1-.482-.482Zm2.089,5.946H5.625a.482.482,0,0,1-.482-.482V10.768a.482.482,0,0,1,.482-.482H7.232a.482.482,0,0,1,.482.482v1.607A.482.482,0,0,1,7.232,12.857Zm3.054,6.429H7.714V15.911a.482.482,0,0,1,.482-.482H9.8a.482.482,0,0,1,.482.482Zm2.571-6.911a.482.482,0,0,1-.482.482H10.768a.482.482,0,0,1-.482-.482V10.768a.482.482,0,0,1,.482-.482h1.607a.482.482,0,0,1,.482.482Zm0-3.857A.482.482,0,0,1,12.375,9H10.768a.482.482,0,0,1-.482-.482V6.911a.482.482,0,0,1,.482-.482h1.607a.482.482,0,0,1,.482.482Zm0-3.857a.482.482,0,0,1-.482.482H10.768a.482.482,0,0,1-.482-.482V3.054a.482.482,0,0,1,.482-.482h1.607a.482.482,0,0,1,.482.482Z"/></svg>