<svg xmlns="http://www.w3.org/2000/svg" width="18" height="18" viewBox="0 0 18 18"><defs><style>.a{fill:#fff;}</style></defs><path class="a" d="M16.071,20.25H1.929A1.929,1.929,0,0,1,0,18.321V4.179A1.929,1.929,0,0,1,1.929,2.25H16.071A1.929,1.929,0,0,1,18,4.179V18.321A1.929,1.929,0,0,1,16.071,20.25ZM9.567,8.112,4.114,13.564l-.253,2.294a.487.487,0,0,0,.534.534L6.69,16.14l5.452-5.452a.245.245,0,0,0,0-.342l-2.23-2.23a.246.246,0,0,0-.346,0Zm4.3-.514L12.652,6.388a.96.96,0,0,0-1.362,0l-.928.928a.245.245,0,0,0,0,.342l2.23,2.23a.245.245,0,0,0,.342,0l.928-.928A.968.968,0,0,0,13.862,7.6Z" transform="translate(0 -2.25)"/></svg>