<svg xmlns="http://www.w3.org/2000/svg" width="18" height="20.571" viewBox="0 0 18 20.571"><defs><style>.a{fill:#fff;}</style></defs><path class="a" d="M16.424,5.143a1.632,1.632,0,0,0-1.639,1.639v3.5h-.321V3.206a1.632,1.632,0,0,0-1.639-1.639A1.607,1.607,0,0,0,11.25,3.174v7.112h-.321V1.639A1.632,1.632,0,0,0,9.29,0,1.607,1.607,0,0,0,7.714,1.607v8.679H7.393V3.246A1.632,1.632,0,0,0,5.754,1.607,1.607,1.607,0,0,0,4.179,3.214V12.7L2.907,10.948a1.607,1.607,0,1,0-2.6,1.891l5.046,6.939a1.929,1.929,0,0,0,1.56.794h7.939a1.929,1.929,0,0,0,1.877-1.487l1.065-4.527A7.715,7.715,0,0,0,18,12.791V6.75A1.607,1.607,0,0,0,16.424,5.143Z" transform="translate(0 0)"/></svg>