<svg xmlns="http://www.w3.org/2000/svg" width="26" height="18.2" viewBox="0 0 26 18.2"><defs><style>.a{fill:#9d92b2;}</style></defs><path class="a" d="M19.337,20.45H13.162A1.462,1.462,0,0,1,11.7,18.987V4.85H7.8v6.337A1.463,1.463,0,0,1,6.337,12.65H.65A.65.65,0,0,1,0,12V10.7a.65.65,0,0,1,.65-.65H5.2V3.713A1.463,1.463,0,0,1,6.662,2.25h6.175A1.463,1.463,0,0,1,14.3,3.713V17.85h3.9V11.512a1.462,1.462,0,0,1,1.463-1.462H25.35a.65.65,0,0,1,.65.65V12a.65.65,0,0,1-.65.65H20.8v6.337A1.462,1.462,0,0,1,19.337,20.45Z" transform="translate(0 -2.25)"/></svg>